<svg width="18" height="18" fill="none" xmlns="http://www.w3.org/2000/svg"><path d="M17.67 14.1l-4.108-3.735a1.011 1.011 0 00-1.405.044l-.916.942c-.938.964-2.354 1.45-3.466.693a6.953 6.953 0 01-.993-.826c-.34-.34-.614-.68-.833-1.002-.753-1.107-.268-2.515.691-3.45l.95-.923a1.01 1.01 0 00.043-1.406L3.899.331A1.01 1.01 0 002.494.243L.301 2.123a1.01 1.01 0 00-.293.656c-.015.253-.304 6.237 4.336 10.878C8.392 17.704 13.462 18 14.858 18c.204 0 .33-.006.363-.008.247-.014.48-.119.655-.294l1.88-2.194a1.007 1.007 0 00-.087-1.404z" fill="#000"/></svg>