<svg width="21" height="20" fill="none" xmlns="http://www.w3.org/2000/svg"><ellipse cx="10.536" cy="10" rx="9.574" ry="9.286" fill="url(#paint0_linear)"/><path d="M13.686 6.286H7.864c-.657 0-1.158.485-1.158 1.123v5.646c0 .638.5 1.124 1.158 1.124h5.822c.657 0 1.158-.486 1.158-1.124V7.41c0-.638-.501-1.123-1.158-1.123zM10.775 12.6c1.346 0 2.441-1.032 2.441-2.277 0-.212-.031-.455-.094-.637h.689v3.218a.309.309 0 01-.313.303H8.052a.31.31 0 01-.313-.303V9.655h.72a2.246 2.246 0 00-.094.638c-.031 1.275 1.064 2.307 2.41 2.307zm0-.91c-.877 0-1.565-.669-1.565-1.488 0-.82.688-1.488 1.565-1.488.876 0 1.565.668 1.565 1.488 0 .85-.689 1.487-1.565 1.487zm3.005-3.25a.342.342 0 01-.345.334h-.876a.342.342 0 01-.344-.334v-.82c0-.182.156-.334.344-.334h.876c.188 0 .345.152.345.334v.82z" fill="#fff"/><defs><linearGradient id="paint0_linear" x1="5.031" y1="17.196" x2="17.315" y2="4.054" gradientUnits="userSpaceOnUse"><stop stop-color="#EEA054"/><stop offset=".503" stop-color="#D64763"/><stop offset="1" stop-color="#B62A99"/></linearGradient></defs></svg>