<svg width="21" height="20" fill="none" xmlns="http://www.w3.org/2000/svg"><ellipse cx="10.465" cy="10" rx="9.574" ry="9.286" fill="#2F89CE"/><path d="M5.368 10.174l2.201.796.858 2.677c.037.181.261.217.41.109l1.232-.977c.111-.109.298-.109.447 0l2.201 1.556c.15.108.373.036.41-.145l1.642-7.598c.037-.181-.15-.362-.336-.29L5.368 9.703c-.224.073-.224.398 0 .47zm2.947.398l4.328-2.57c.074-.036.149.073.074.11l-3.544 3.22c-.112.108-.224.253-.224.434l-.112.868c0 .109-.186.145-.223 0l-.448-1.592a.315.315 0 01.15-.47z" fill="#fff"/></svg>