<svg width="20" height="20" fill="none" xmlns="http://www.w3.org/2000/svg"><ellipse cx="10" cy="10" rx="9.574" ry="9.286" fill="#48C95F"/><path d="M13.795 6.315a5.071 5.071 0 00-3.537-1.422c-2.767 0-5.01 2.167-5.01 4.841 0 .846.246 1.693.666 2.404l-.7 2.505 2.662-.677a5.248 5.248 0 002.381.575c2.768 0 5.01-2.166 5.01-4.84a4.863 4.863 0 00-1.472-3.386zm-1.12 5.146c-.106.27-.596.541-.841.575-.21.034-.49.034-.77-.034-.176-.068-.421-.135-.701-.27-1.261-.508-2.067-1.727-2.137-1.829-.07-.067-.525-.643-.525-1.252 0-.61.315-.88.42-1.016.105-.135.245-.135.35-.135h.245c.07 0 .176-.034.28.203.106.237.35.846.386.88a.21.21 0 010 .203.707.707 0 01-.14.203c-.07.068-.14.17-.175.203-.07.068-.14.136-.07.237.07.136.315.508.7.847.49.406.876.541 1.016.61.14.067.21.033.28-.035.07-.068.315-.338.385-.474.07-.135.175-.101.28-.068.106.034.736.34.841.407.14.068.21.101.245.135.035.102.035.339-.07.61z" fill="#fff"/></svg>